<?xml version="1.0" encoding="UTF-8" standalone="no"?>
<svg width="512" height="512" viewBox="0 0 512 512" fill="none" xmlns="http://www.w3.org/2000/svg">
  <!-- Background -->
  <rect width="512" height="512" rx="128" fill="#040b1a"/>
  
  <!-- T letter with gradient and glow -->
  <g filter="url(#glow)">
    <path d="M120 120H392V180H280V392H232V180H120V120Z" fill="url(#gradient)"/>
  </g>
  
  <!-- Nodes and connections for matrix effect -->
  <circle cx="120" cy="120" r="8" fill="#00aaff" opacity="0.8"/>
  <circle cx="392" cy="120" r="8" fill="#00aaff" opacity="0.8"/>
  <circle cx="280" cy="180" r="8" fill="#00aaff" opacity="0.8"/>
  <circle cx="232" cy="180" r="8" fill="#00aaff" opacity="0.8"/>
  <circle cx="120" cy="180" r="8" fill="#00aaff" opacity="0.8"/>
  <circle cx="280" cy="392" r="8" fill="#00aaff" opacity="0.8"/>
  <circle cx="232" cy="392" r="8" fill="#00aaff" opacity="0.8"/>
  
  <!-- Connections -->
  <line x1="120" y1="120" x2="392" y2="120" stroke="rgba(100, 200, 255, 0.5)" stroke-width="2"/>
  <line x1="120" y1="120" x2="120" y2="180" stroke="rgba(100, 200, 255, 0.5)" stroke-width="2"/>
  <line x1="392" y1="120" x2="280" y2="180" stroke="rgba(100, 200, 255, 0.5)" stroke-width="2"/>
  <line x1="280" y1="180" x2="280" y2="392" stroke="rgba(100, 200, 255, 0.5)" stroke-width="2"/>
  <line x1="232" y1="180" x2="232" y2="392" stroke="rgba(100, 200, 255, 0.5)" stroke-width="2"/>
  <line x1="120" y1="180" x2="232" y2="180" stroke="rgba(100, 200, 255, 0.5)" stroke-width="2"/>
  <line x1="232" y1="392" x2="280" y2="392" stroke="rgba(100, 200, 255, 0.5)" stroke-width="2"/>
  
  <!-- Definitions -->
  <defs>
    <!-- Gradient for the T -->
    <linearGradient id="gradient" x1="120" y1="120" x2="392" y2="392" gradientUnits="userSpaceOnUse">
      <stop offset="0" stop-color="#00aaff"/>
      <stop offset="1" stop-color="#0066cc"/>
    </linearGradient>
    
    <!-- Glow effect -->
    <filter id="glow" x="100" y="100" width="312" height="312" filterUnits="userSpaceOnUse">
      <feGaussianBlur stdDeviation="4" result="blur"/>
      <feComposite in="SourceGraphic" in2="blur" operator="over"/>
    </filter>
  </defs>
</svg>
